/* XPM */
static char *_d9938d1932e4b30847665badcb46bdd[] = {
/* columns rows colors chars-per-pixel */
"64 64 59 1 ",
"  c #151515",
". c #1B1B1B",
"X c #1D1D1D",
"o c #232323",
"O c gray15",
"+ c gray16",
"@ c gray18",
"# c gray20",
"$ c #343434",
"% c gray22",
"& c gray24",
"* c gray26",
"= c #464646",
"- c #494949",
"; c #4E4E4E",
": c #535353",
"> c gray34",
", c gray35",
"< c #5F5F5F",
"1 c gray38",
"2 c #646464",
"3 c #686868",
"4 c #6D6D6D",
"5 c #717171",
"6 c #777777",
"7 c gray48",
"8 c gray49",
"9 c #808080",
"0 c gray52",
"q c #898989",
"w c #8D8D8D",
"e c #909090",
"r c gray58",
"t c #989898",
"y c gray61",
"u c gray63",
"i c #A7A7A7",
"p c #AAAAAA",
"a c #AEAEAE",
"s c gray70",
"d c #B7B7B7",
"f c gray73",
"g c gray75",
"h c gray76",
"j c gray77",
"k c #CBCBCB",
"l c #CDCDCD",
"z c #D0D0D0",
"x c #D5D5D5",
"c c #D8D8D8",
"v c gray87",
"b c #E1E1E1",
"n c #E4E4E4",
"m c gray91",
"M c #EEEEEE",
"N c #F1F1F1",
"B c #F4F4F4",
"V c gray98",
"C c #FDFDFD",
/* pixels */
"2%O%6668%O#65>&->,<,,<3<>=$#@#%%#@OO++%<>-%%**=&===*--=%*%$###%*",
"8<O;8785+OO&=-,<,>><4w2&%#OoOOO@@+OOOOO#%=*&%&**&==&%%$###$%*-;-",
"08#%90w,o%=:,<,:<38ey7=@oooXoXooooooooOO+@$&%%*&$%$#@@#%&*-;::;=",
"w4@@>5>*->,>>,2646r97:#oooXoXoXooXoooOOO+++*:##@@++@%*=-=;>;;::-",
"t>O#%-;>>>:<40ry623;;%ooXoXoXoXXoXXXoooO++++=$O+@$&*&%+&-=;:;:>-",
"8*=<11,::28rtty1$*-$OoXXXXoXX.....X...XXo++O+%$&*=*=#X1d-=;;=--*",
"<4531<16qtyytu6+OoOXoXoXXXX.XXXoooooooXXXXO++$*&&*&*=*bp*===&%&*",
"07446qtuuyyyur%+ooooXoXXXXXooooXoXXooOO+oX.o+#%%&**&=:6**%$$%&==",
"w9wtuuuyuuyyu2++ooooXXXXXooXX........XXXOOo.X#%%%&*&&%@#@#$%*===",
"uppiuiuuuuuit%+OooXXXXXXoX...XO+++@+OX...ooOXo&$$##@+@#$%*&*=&&-",
"pspppiuiiiia7@@OOooXXXoo. O%-<:======--$OX.XO.+@O++#%&****&&*%&*",
"dsssappiiiua1@+OoXXXooX +-:;$#oXX..XXO%==%+.oOoO@$&%*%%&%&&%%$##",
"ffddaapiippf<+@OXXXOX.X*,=O .XoO+OXXXX...%=$Xo+#####$%$$$##+++oo",
"ffffdssssaie-++ooXOX.O:=O.O@#$$&%@XoXXXXX..#%oX%%+@#@#@++OooooO+",
"fhgfggdpw8;93OOX.oo.@;#.X#%%&*=*=%o+OXXX.XX.O$o#=#++OOooXoO@@$&=",
"glkhae89e62f0oo2t+.@;+.+#&&*-----*+@@OoXX..XXO@2:%+OOoO++#$&&*=*",
"gfuetusgg&@t0X#gf;o:+X@$&*-;;:;;;=@$$O+oo.XXXo.4>&$++@$$%%%%&%&-",
"riflczhghq=eeO+at=%$X+$&=-;;::>>,:$&*##@OoXXXXXX&%#@$*&$$$$*:17q",
"cbvcxljhjd;6i#X>9*#XO#**-;:,,<<<1<&*=&%$+OXoXoo@==-:%=$$>1479ydh",
"cccvxjjjjk3:d;X.@%+oo&=;:><2334431*;;**%#+oOO+#-6963%@&=79eu9hbb",
"vbbmvlkhdfurzt.o#$<++,1;*&=:257763;::%#@++++@$&-4076-#*;8augesxb",
"mMnnvljgjlhcxv6 +62O$7:#%#@#&>7996:;&#@$%%$@%*-:19qq1@*:97quthNB",
"nMmnncxxxxlzxcb:*p>@%,29862>;=50q5>;&-:>>=*&%-:116wr6$->6euaeysu",
"gbbvnvcxxxlxccnzau>$#3t97775637qw6>>>,1,:=&---,3359uw%-,3675<;10",
"nMnnmbxllljjkkkczt,&@5950075467we7,::,>;;*=*-:>2468ty=-264845uut",
"CCVNMkurretyyyqhlr<*#<375;-;,349e8>;>-$###*&*><<370qp>*3w79qekce",
"Nmxjgsie837eytynke,&#==%$@+=,,58y0<::-*$%%**&*,<25q0i3&3iy90whjz",
"zllkxhwr858dhthBzq,&#;&@--%<127qu01,>,::=*==*&*<24qry7%3pMspehlz",
"nmMmVh5u628hglmVz7>&#<85>,,<27qru931,1332,;=-*$=350uu0&2tnscigzx",
"VCVVCcqii9scxvBbf4>*#<etttreryity952257873;-;=#%,48up0&<rbgmgjxv",
"VVVVCNrtpyucnmNva2>*@,rupiuippity873367qq6>-;-##:36yaw=>qvgBvcNm",
"VVVVCMhdaitvmNmzp1>*#;euiiippauti907388095;-;-$+*15rww;:0jijfayy",
"VVVVCMlkspabNBbkp2;*$*8yuipppprip987479q04:-;=%@$>3eqe>;9f957433",
"VVVVVVxxjhjNVVbkp1;*$%2ripppiurq852<370w91--;=%#@-3qte,;8uqty975",
"VVVVVVbVBmnVCCnji4:*$$:9yipiiye2>4,:<6qe0<-=;=%$#&<9yu1;6yqupr5d",
"VVVVVBBCBMmNbvxsi6:*%$*6tupiiie89542170q8<-*;*&&#%:8qi5-5pwwshjl",
"VVVVVVVVVMnz0ygat9:&&$%2wiipiiurr8808wq97>-*-=%*#$-6ra9-3dktgtyz",
"VVVVVVVVBMcnqrdat0,&*$$:9uiiippir08qwre74>;*--%-&$=2eaw=5aCzidmn",
"VVVVVVVVVncnwqadt01&*&$&2wtipsa0641139w71:-=;=%-&$*<0py<0tMhelhn",
"VVVVVVVVVmcn98sduw4*&*$&:7eriy3;;-*&*->2,>-*-=%-=%*>9ysequnftxuk",
"VVVVVVVVBmcNbnNjur6***$%;20q0,;,>;;;;-;1>>====%-=&=:7uutyizphjhh",
"VBVVVBVCBmcBCNmsut8=**%%=,5000885222<<2<>;=;=*%--&*;4iurype9khgs",
"VCCCCCVVNmbvvxxiiy9:*=&$*>280q94<,,,<12,>;=-=-%=:=*:1rurwetyxnj6",
"VbcnvacCMnnj0hg8if0,***#$-140q0667578751>;&;=-*=:;=;19qqpurpg,*O",
"kfphs0jCMbvNiruidz92==*$@+;17qrtyyweq851;&&:*-=*:--;<60easdggq;-",
"lcllz6sCmbbVNmjffcr2:*=$#oO*3wyuir0qq85:%%*>--=*>:--<4qatwuspfcj",
"CCVvm7aCnlgkhay60e82<-=$$+oo&4wee06662;O#%=;-;=*::-=,49phhaaiipu",
"VVBCn1iClit044<=451<<--%%@XOO+*,>,>;*#Oo#$=;;-=*:>-=>47uhspw988w",
"CCVCb1uvpt0343-*11,1,:=&%#XOOOO$+@$#@O+X$&=;:=*=::-*:34tp9,;6980",
"bmbmxeaq8i5:>,,>>2:<,:=*%$ooOO+$+##%#++o%*-=>;==:>-=-13es0;,788<",
"1qindp038i6<><21>1,,,:;*%$OoOo@$+$@$#+@o$-;=:;==-:;*-,<0sr9<=2><",
"wqucu6878951,3>:-<>;<--=%$+ooO+%#$+#%+@+$=-=:;-=;;;=;:><t083<2&,",
"VVVf219w83223<;=$:>-<*-*$$@o+o+$@#@@%#+O$===;--=-;:*;;<-6w83q2*,",
"Mmv9:,5q7123,-:$#&=;>*=;$##oOO@$@@#+$%@+#;;--*-*-=:*=;,&;q94w,=;",
"Mma2;;-8431,:*:+#%*;>**:%@#+oO@&@+#@@%#+$=*=;=**-=:==->=%434q;&&",
"ny-,;:;253:,*:;X@&&&,*&;&@@@oo#&#@#@@&&+$-&&=&&&-=;-*=:;$2:2q>&=",
"p1-=>>,,411;*>*o+%%$:=&;*@+@Oo$*#+@#@#*+$;%&*%%&*=-;&=::*,;>61--",
"61>$>,:;,7,-=>&@O$%#;=%;=@++@O#%$##@+@%%%-%&&&%%**;;**;12<&&31;=",
"<,<&*:;::<,-;>-%O@#+=-%-*@@O++@%$@##@#$&*-$&&%$%&*=;&*;337;#<>**",
">:3=@&>,*=>;,;;-#@@+*=$==@+O+#+%$@#@##@#==#&*%$%%==-=&;<%77%=>-%",
"<:,>##:>:=-<1-:-@##o$=#*-#++O#+&@@@@$#@#*-@%*%$$%===&&-=O3q-%=-&",
"<:;,%+%;:=->,>-*@@@o@&#&;#@+O@@&@@#@$@+#$-#%%$##$**=&&=$o15-&$=-",
"1>-,;OO%::,>>>>>=#$X+%##-%@O+O@&+@@##@@@$=$%$$@$#%*&@%=@@,2--$$=",
"<,->>@O#&;,::,<>=$$Oo%#@*$+OOOO&@+@##@@+%&#%%##$#$*&+$*#$>,#,-@%"
};
