/* XPM */
static char *cbhyb_4gxk2[] = {
/* columns rows colors chars-per-pixel */
"64 64 112 2 ",
"   c #2E241D",
".  c #30261E",
"X  c #2E2E2B",
"o  c #312724",
"O  c #342B25",
"+  c #382E26",
"@  c #362D2A",
"#  c #392E2B",
"$  c #2E302F",
"%  c #353126",
"&  c #3A3227",
"*  c #36312C",
"=  c #3B322C",
"-  c #3D392E",
";  c #312F30",
":  c #353433",
">  c #3C3431",
",  c #373834",
"<  c #3C3A34",
"1  c #363739",
"2  c #393738",
"3  c #373939",
"4  c #3B3C3B",
"5  c #41362D",
"6  c #423A2E",
"7  c #5D3C29",
"8  c #413632",
"9  c #433C32",
"0  c #493F34",
"q  c #423E39",
"w  c #3E4033",
"e  c #3E403F",
"r  c #53442F",
"t  c #444135",
"y  c #4A4336",
"u  c #44443A",
"i  c #4C453A",
"p  c #47493C",
"a  c #4B4A3D",
"s  c #514636",
"d  c #5E4330",
"f  c #554936",
"g  c #51463B",
"h  c #534B3D",
"j  c #5A4F3E",
"k  c #57523F",
"l  c #5E513C",
"z  c #60412F",
"x  c #644533",
"c  c #644A39",
"v  c #6B4E3B",
"b  c #62543D",
"n  c #3E3F41",
"m  c #3F4141",
"M  c #414141",
"N  c #474842",
"B  c #4C4E42",
"V  c #4D4E48",
"C  c #554D41",
"Z  c #584E42",
"A  c #4E5143",
"S  c #4F5048",
"D  c #525345",
"F  c #5C5444",
"G  c #555847",
"H  c #5E5946",
"J  c #545649",
"K  c #5B5549",
"L  c #56594B",
"P  c #5A5B4C",
"I  c #5C5E50",
"U  c #635644",
"Y  c #6B5642",
"T  c #645946",
"R  c #6C5B45",
"E  c #61574A",
"W  c #645C4B",
"Q  c #6B5E4B",
"!  c #725643",
"~  c #765947",
"^  c #795A46",
"/  c #745D4A",
"(  c #635C50",
")  c #6A5F51",
"_  c #5C604F",
"`  c #5E6152",
"'  c #66614E",
"]  c #6B624D",
"[  c #73644D",
"{  c #7B634E",
"}  c #72684F",
"|  c #646252",
" . c #6C6452",
".. c #6D6955",
"X. c #726654",
"o. c #796653",
"O. c #746955",
"+. c #7B6C54",
"@. c #756C59",
"#. c #7A6E5B",
"$. c #7E7157",
"%. c #7C725C",
"&. c #7F7561",
"*. c #806751",
"=. c #816E56",
"-. c #816F5B",
";. c #807057",
":. c #82745B",
">. c #85795F",
",. c #847661",
"<. c #847961",
"1. c #8A7A63",
/* pixels */
"E E W W ' ] ' H a * @ @ @ @ # @ # # # # @ @ = q 8 : @ : > @ * * - 9 D K D G G D G G J P I I S A A D L G P P L A D G A D P A a a ",
"H E W H W E W a % % X @ @ o @ # = = # > @ @ # > # @ # # = = = > * * - a L G G K G L K I P I P P L ` ` ` ` P L D G D D L P p a u ",
"h F H H C y s # O O O O o @ @ @ = = = # @ # > # # @ @ @ O = = = - * O % t D L G L L D D K _ ` ` ` _ L G L G L I L L L L I J < - ",
"0 y h F C s = o o O O O # @ @ @ # = = @ # 8 8 > = = # # @ & O % @ - * * % 9 B D A D D L P P L P P D G L A L J ` _ G L _ P A t D ",
"Z g g Z Z E K 0 + o o @ @ @ > # > - * = 9 6 6 = - 9 6 y 9 6 6 & & * = = * % - a A A G A L A L P P _ L L _ _ ` ` ` P L L D L J B ",
"C g 0 g C C Z E E 0 # @ @ @ # > & - & 9 t 6 t p h F K F k k a y 6 % * = = * * - p A A A A L ` P L L L L L _ I L L L L L P ` L A ",
"0 0 5 5 0 0 0 C E ( i O O # > > & & 0 y s k H W ' ' ' ' T H k F a 6 = = & = * % - A D J L D L L G L A L L L L L L L L I I P L G ",
"5 5 0 8 9 0 0 q i C 8 @ @ = = = 6 i F H Q | ..| ] ..] } ' ' T H F h 6 = - & * * % < A A A A L _ _ _ L L L L L L L I I L D D V L ",
"9 9 0 0 0 0 0 8 # 8 @ @ # 5 5 6 F H  . .X...@.@.@.@.@...X.] ' T F k i - - - = & * % t a a p L P L _ G G A J L A G J S J L _ V A ",
"9 0 i y 9 + # @ @ o @ @ # 8 8 Z '  .....@.$.@.%.@.%.@.@.+.X.] ' T H C y = 9 = = % * * u A a A A G _ e A m A A L P L L ` _ L L B ",
"0 6 0 Z h 5 O o o o @ # 9 6 h W ' O...%.%.%.%.%.&.%.@.%.@.O...] W E H C 0 = 9 & * * * - p p p a A e m G _ _ _ L P L L _ _ L L B ",
"6 h F E Z 5 = = @ @ @ > 9 t E ] ..%.%.%.%.%.%.%.&.@.%.%.@.....] ' ] W H a - - & * * * * w u p A A A L L L L L L P L L L L L L B ",
"s F W E F y y 9 > O @ > 9 h W ....%.%.%.%.%.%.%.%.@.%.%.@.O. .T h s f F D t = 6 & * * - * < a A G p G A G G G G L L L L L L J A ",
"H ' ' H h g i 9 @ O @ < y F  .@.@.%.%.%.<.%.<.<.%.%.&.%.X.l 0 & 6 t y t y y = & & - = = % - a A G w A G G G A L L J L J L A A J ",
"i F K k y s g 8 @ o @ > i H  .@.%.%.%.%.<.%.%.>.>.%.%.' s 5 6 C '  ...' F i - = * = * * % % w A G A e A a a p A m p m A _ _ L L ",
"i y y a i 0 8 + O O @ - i (  .@.%.%.%.<.%.<.>.>.%.$.O.p 5 y E ) ] T H W H F 9 = & = * @ - * < u G G w p p A a p A G _ ` _ _ L L ",
"i i y y i 9 & O o @ @ 8 0 E O.@.#.&.&.&.%.%.,.<.:.$.+.f f T ) ) H k f a F K a - = = = @ * - * w p G p p a A J L L B L ` ` ` ` L ",
"i i y 0 t 6 & O @ @ # 8 y E  .@.@...Q U E [ %.,.>.%.O.T T T F g 6 & & & & g H y & @ * * * & * , w G p G A J p a B u u I | ` ` L ",
"i y 0 t y t & O o @ @ > 9 E X.] h 6 6 6 6 h O.#.;.$.] b U b g i & % y 6 6 k H h - * = & * * - * w e G G a u < , < w B I I L I L ",
"y y 0 g h y - O @ @ @ @ = K W y s K Q W Y W Q [ $.+.R l U F F  .s 6 p s H ] ' F 6 & = % * & > O w w B L u , w B A A P L L L L I ",
"y t h D h i = O o @ @ @ # C h Q #.@.X.] T T Q Y } } b l T R ' b l H T ] } ] ' T y & = & O = * = % u B A A A J J L S L L ` I ` I ",
"i F K H G i - O O o o o # 5 U #. .Q h 6 6 j F T [ +.} b b ] } } @.$.$.$.O.X.] ] f & & = @ * > = % w p p B D D A A J B A I I ` I ",
"E ' ' H h y = % @ O o o # & Z ) H i - % % F H Q [ $.$.b l ' [ +.;.%.$.%.$.O. .] j 5 & = @ = - & % % u p p B A B A A D L L L L S ",
"' ' ' k a y & % O o o o O = 8 W 0 & F t - F ] ] ] $.;.[ b b [ +.$.$.$.%.$.@.] W l 6 & = = @ * = * % - u B D A A A A A D L S S B ",
"' | ' k h t & O @ o o o o > # F h y a F H ..@.} ] +.;.+.R b R +.$.$.$.$.$.} ' ' F 0 % = + + = = - % & < a a A D G A L G A p p G ",
"' | ' k D t % & # O o @ @ = + h O. . .O.%.&.$.+.} $.>.>.+.] b +.;.:.;.$.$.} } ] T y 5 & = + + # * & % , t a A A p u A e p L J P ",
"....' H a 9 & + # @ o @ o @ 5 0 ..@.%.&.<.:.:.;.+.;.1.>.] b b ] $.>.:.;.$.+.] ] E y 5 + 5 + + = = @ * - - u u w w p B A L J S J ",
"_ k k a k - = & 5 O o @ @ o 5 6 | @.%.&.>.:.:.>.$.[ [ } b r v R $.:.:.;.+.[ } ] U s 5 = & = + + = = % * - - u u G A J J S S A J ",
"a y a f a w & = 8 @ o @ # o # # D @.%.%.&.:.>.>.:.b b { +.{ b +.+.+.;.+.+.[ [ ' E h 5 + + = % = * = * * - - w a A a p A A a G A ",
"k H H _ k t & & 5 @ @ # = o # 8 & | &.%.:.:.>.>.>.*.{ :.;.=.{ { { { +.+.[ [ ] ] U h 6 = = = & O % = * O - & < u w p A p e p p A ",
"_ ' ' ' k 6 & = 5 # + = 8 o @ 8 O y O.%.%.>.>.>.:.=.*.;.*.*.*.{ [ { { } [ ] ] R Z g 5 5 = # = @ # = # * & , % w w u A p p B p p ",
"y a y k D 6 - & - = # 8 # @ o # = o F @.$.%.>.:.>.=.*.*.*.v v z c c b [ ] ] ] T F s = # 5 = = = O # @ + * & - - t u u p p p p p ",
"t t y a h 6 5 = - 8 > 8 # o o @ 8 o O Q +.@.-.-.-.#.{ ! x 7 7 z c v R [  . .Q T Z 0 5 5 5 5 5 o @ # + @ @ = - * , t < w B A B B ",
"a D C C a 6 5 = = 9 9 8 # o o o # # . 5 Q #.=.#.#.o.Y x x v ! ~ ! Y / R [ X.] E Z 5 o 5 5 + 5 @ # # # @ = * - - * - u p S N M S ",
"F F H h i 6 6 = = 6 = % # o @ @ @ # @ . 6 X.o.@.+.X.~ ~ ^ ~ ! ! [ { [ [ X.X.Q H 7 o o # 5 5 5 5 + = # @ = @ = - * & w w u - , N ",
"H H H H a 6 6 6 = 5 + = # + # @ o 8 # O   0 X.o.#.+.#.o./ / o.,.:.:.:.+.o.X.E y 5 + o 5 8 5 @ @ = = # # = * * = , * * - < e S A ",
"' ' k s i - 9 5 5 8 = @ # # = @ o @ 8 @ @   0 ) X.o.X.o.-.,.1.1.1.,.,.#.+.Q s 8 5 . + + 8 5 8 # = # = = O = * - < > * > , w e A ",
"' k y t 9 5 9 = 5 = = = # > # @ o o # 8 # @ o 8 ( o.&.-.,.,.1.1.,.,.,.X.W f s s 5 + + 5 8 5 # # @ = = = % & = = - , * @ - - - e ",
"' H k p y - 5 - 6 = & - # # # @ o @ o 8 8 8 @ o + g E #.-.,.,.,.-.o.X.U j j Z Z 8 5 # # 5 # 5 # # O = = = = # = - 8 < # * : , , ",
"T k k s 9 - 5 8 8 = - = 8 = # o o # @ @ 8 8 # O o O 5 0 Q X.X./ Q Q Y U U E U Z 8 5 5 # 8 # 5 5 = # + = = % O = = > < < * * - & ",
"' H l a 6 6 > 9 5 5 = - 8 = @ o @ 8 # # 8 q 8 @ o o 5 6 b [ ) X.) X.) ) ) Q ( F 0 5 6 5 5 @ # # # = @ > > # @ # = = > > = @ > = ",
"' G k p 6 - 5 9 5 - = 5 > * # @ # # # # # n 8 o o . . 0 U [ @.X.o.X.X.X. .) ) Z 0 8 8 8 5 5 # 5 # # # > > # # # = = > > > @ @ > ",
"K H D 6 6 6 5 9 8 9 8 8 - = # # # # # # 8 8 8 @ . O & 9 F X.) o.@.X.X.X.X. .Q F i 9 0 9 8 6 # # = # # # 8 # # # @ > @ > > # @ # ",
"| P a 6 6 = 5 5 9 8 = > - # # = # # # # 8 8 8 # O + 5 0 E X.o.o.#.o.@.X.X.X.) Z g i s 0 8 6 5 5 8 # # # # > # 8 # @ # # > > = @ ",
"K L y 5 6 = 6 5 8 = = > # @ # # # # # # 8 8 > # O = 6 s W X.#.X.#.#.#.@.@...) E C g C 0 q 8 = = # # # # # # 8 2 8 @ # # @ > # = ",
"h F 6 6 6 5 5 5 8 = # # @ @ # @ # # # # 8 > > o # - 0 F ( X.@.#.#.#.#.#.@.@.) Z C C s i i 0 5 = 5 # + # # # # 8 8 # @ # # # # 8 ",
"F i 6 9 9 = = 5 # @ @ @ # # @ # # # # 8 > 8 # @ > y C U Q  .@.@.#.&.#.#.@.X.) E C g y y 0 9 9 - # 5 = # @ # # 8 # # # # # # # # ",
"i - 6 6 6 5 = = o @ # @ # # # 8 # 2 8 @ 8 # @ # 9 i s F Z Q W  .) X.@.X.X.) ( K C g i 0 0 9 9 > # # # # @ # # 2 # 8 # @ @ # # 8 ",
"= = 5 6 5 5 # + O - 8 > 8 8 8 8 > > @ # > @ O < C C F F E Q W Q ]  . . . .Q W E U h h s i i i , 5 # # # # @ # # > > 8 @ @ @ # # ",
"+ = 5 6 8 8 # # % = 8 8 8 8 8 > * * > : O O - - p ( ) ) )  . ... .] ]  .'  .Q Q E E F C C a 9 O # # # = # @ @ # # # 8 # @ @ @ # ",
"5 5 5 5 5 - = O @ > > , 8 8 > # - * $ * * O 3 3 9 D  .|  .X.X. . .] Q ] ] ' Q W W E E K Z < * * > = # # # @ # # @ # 8 2 # # @ @ ",
"5 5 5 5 8 6 * * * * * @ : : > ; $ * * * X : 3 w 4 e K ......O.X.X. . .|  .Q ) W Q ( I C 9 * * $ @ ; # @ > # @ ; @ @ # # > # @ @ ",
"0 0 6 5 6 8 = * : > : - > q ; @ > , : X * 3 e 4 4 w w D  ..... . . . . .] ' ' W ( K u > * * * * : O : @ * * O @ # # # # # @ # # ",
"i 0 6 = 5 9 * * = > , - 2 q , : 4 4 : $ : 4 n q 4 4 , < i L ) |  . .....| ( P C q > : : : : : : : * * @ O : > O # ; # # # # @ # ",
"s 0 0 6 5 6 > * * < 9 : < 4 4 , 4 3 : : : n 4 n e 4 4 4 3 4 p C J L J V p u < : : : : : , < : : ; $ : : : * : @ # # # # # @ @ @ ",
"g 0 9 5 5 9 - @ = , 4 , : q 4 4 4 1 ; : 4 4 n n u 3 n n n 4 < , > : * : : : 1 2 3 : : 1 4 3 3 3 1 : : $ * : @ > # ; # # # @ @ @ ",
"i i 0 6 6 > - * : , q , : 3 4 u 4 : : 4 3 M n n M M 3 n n n 4 4 , , 3 3 3 4 e 4 1 2 3 4 2 : 3 3 1 1 1 : $ : * > # ; # # ; # # # ",
"i i 9 - 8 = - * > > 4 4 : 3 4 4 3 * 3 4 4 4 n n 4 n n 3 n M M M n q m 4 e e 4 3 2 4 4 4 4 3 3 3 1 1 : : : : @ : 1 # ; # @ # # # ",
"h i 9 0 9 = > * : , , 4 : , n 4 , : u < 4 q 4 u M e n 1 4 n 4 n 4 4 4 n m 4 : 4 n 4 4 3 4 3 3 : 3 1 2 : : : ; @ # ; # # @ @ # # ",
"h i 0 9 - - > * - : , 4 : : 4 4 : 3 4 e 4 4 4 4 e e n 3 4 4 n 3 3 4 n 4 1 3 4 n n n 2 4 4 4 3 3 : 2 : : : : > ; ; # ; # @ ; # # ",
"B i q 9 9 > - = > < 4 4 , : 3 , , 4 3 3 4 4 4 4 4 n n 3 4 n 3 3 4 4 1 1 4 n n 3 n n 1 4 4 4 1 3 1 3 2 2 : : > > : ; ; : ; @ @ ; ",
"C i t 9 > - - = > < < 4 4 : : , 4 4 3 4 4 3 n n n 3 3 n 3 3 3 n 3 : 3 n n n n n 4 n 4 2 1 4 3 1 3 3 : : : : ; : > @ : ; @ # ; # ",
"C a i 8 6 9 - - : < , < 4 , : 1 < e , 4 4 4 3 3 3 4 n 3 3 2 1 3 4 e n n n n 4 4 n 2 2 n n 2 2 2 1 1 1 : 2 : : ; X ; : @ @ ; # : ",
"i p 9 9 9 6 8 > < < > < 4 : : 3 4 4 : 3 4 4 3 3 4 3 n 3 1 1 1 4 m 4 4 n 4 4 4 n 2 1 n 1 4 1 2 1 1 1 1 1 ; ; ; ; ; : ; X @ @ ; # "
};
