/* XPM */
static char *edddc69905b44d33d795ca756456e5d2[] = {
/* columns rows colors chars-per-pixel */
"64 64 197 2 ",
"   c #000005",
".  c #07050B",
"X  c #0A060C",
"o  c #0C080E",
"O  c #11070C",
"+  c #120A0E",
"@  c #180E0E",
"#  c #0B0611",
"$  c #0D0A11",
"%  c #0F0E18",
"&  c #130D12",
"*  c #190E14",
"=  c #141116",
"-  c #1B1214",
";  c #15141A",
":  c #1C141A",
">  c #1B191E",
",  c #211616",
"<  c #221817",
"1  c #21161A",
"2  c #241A1C",
"3  c #291D1D",
"4  c #24201F",
"5  c #2D211E",
"6  c #31231F",
"7  c #1C1C22",
"8  c #241721",
"9  c #241D21",
"0  c #2A1E21",
"q  c #242124",
"w  c #2D2223",
"e  c #24242C",
"r  c #2C262A",
"t  c #2F2829",
"y  c #322525",
"u  c #342926",
"i  c #3A2B26",
"p  c #332729",
"a  c #392728",
"s  c #352A2B",
"d  c #3B2D2C",
"f  c #3E312D",
"g  c #262630",
"h  c #282831",
"j  c #392E30",
"k  c #3D3232",
"l  c #3B3637",
"z  c #333339",
"x  c #412E2D",
"c  c #43332D",
"v  c #433433",
"b  c #493635",
"n  c #453936",
"m  c #4B3A35",
"M  c #443638",
"N  c #4A3738",
"B  c #463C3A",
"V  c #4B3C3A",
"C  c #513E3D",
"Z  c #47403B",
"A  c #4B413C",
"S  c #534439",
"D  c #53423D",
"F  c #3D3E47",
"G  c #473F40",
"H  c #513E40",
"J  c #4D4341",
"K  c #494648",
"L  c #554342",
"P  c #5B4545",
"I  c #544A44",
"U  c #5B4A45",
"Y  c #56474B",
"T  c #5E4748",
"R  c #554C4A",
"E  c #5D4A4A",
"W  c #5B5347",
"Q  c #5B514C",
"!  c #584E50",
"~  c #595654",
"^  c #624F44",
"/  c #614B4B",
"(  c #66564B",
")  c #64544C",
"_  c #634F51",
"`  c #635353",
"'  c #6B5655",
"]  c #635C54",
"[  c #6B5A54",
"{  c #655D5A",
"}  c #6C5C5A",
"|  c #725E54",
" . c #745E5E",
".. c #67614F",
"X. c #686257",
"o. c #63615C",
"O. c #73635C",
"+. c #77685D",
"@. c #6A6765",
"#. c #746563",
"$. c #7A6564",
"%. c #7C6C64",
"&. c #746C69",
"*. c #7D6D6B",
"=. c #75756B",
"-. c #75776B",
";. c #7D726B",
":. c #79796E",
">. c #757673",
",. c #797470",
"<. c #7C7D74",
"1. c #7F7F78",
"2. c #816B63",
"3. c #836D6D",
"4. c #83726C",
"5. c #89736C",
"6. c #827572",
"7. c #8A7671",
"8. c #847A74",
"9. c #8D7973",
"0. c #867B7A",
"q. c #927C75",
"w. c #937F7C",
"e. c #7F8074",
"r. c #828275",
"t. c #8C8074",
"y. c #83837B",
"u. c #8B867C",
"i. c #87887B",
"p. c #8A8A7E",
"a. c #93827C",
"s. c #858681",
"d. c #8B8281",
"f. c #878883",
"g. c #8B8B84",
"h. c #8D8E89",
"j. c #958883",
"k. c #958984",
"l. c #9E8C84",
"z. c #8E9083",
"x. c #8F908B",
"c. c #929285",
"v. c #93938B",
"b. c #99928F",
"n. c #97988C",
"m. c #9A9A8D",
"M. c #969792",
"N. c #9B9A93",
"B. c #9B9894",
"V. c #A28D8D",
"C. c #A2988D",
"Z. c #AB9493",
"A. c #A29B93",
"S. c #A3A195",
"D. c #A5A39B",
"F. c #ACA49C",
"G. c #A9AA9D",
"H. c #B2AC9E",
"J. c #B59EA1",
"K. c #ACACA2",
"L. c #AAAAA5",
"P. c #AFB2A6",
"I. c #AEB1AA",
"U. c #B2B3A4",
"Y. c #B2B4AC",
"T. c #B6B9AE",
"R. c #BABBAC",
"E. c #B4B7B1",
"W. c #B6BAB2",
"Q. c #BABDB5",
"!. c #BCBFB8",
"~. c #C0B7AB",
"^. c #BEC1B2",
"/. c #BDC2BB",
"(. c #C2C3B5",
"). c #CBC6B7",
"_. c #C1C5BD",
"`. c #C3CABD",
"'. c #CACCBB",
"]. c #D3CDBF",
"[. c #C5CBC2",
"{. c #C8CBC4",
"}. c #CACEC4",
"|. c #CBD3C5",
" X c #CDD3C9",
".X c #D0D5C4",
"XX c #D5D9C6",
"oX c #D1D5CB",
"OX c #D4DBCC",
"+X c #D9DECC",
"@X c #D6DDD0",
"#X c #D7E1CF",
"$X c #DBE2CF",
"%X c #D6E0D1",
"&X c #DBE3D2",
"*X c #DEE9DA",
"=X c #E0E7D5",
/* pixels */
"f.f.f.f.f.f.h.s.h.h.x.x.M.M.M.M.B.B.B.D.M.d.b.d.} K K G J { &.0.6.0.0.,.6.&.` Q Q I @.S..X=X$X$X$X$XXXXX&X%XOX|.#XOX|./.`.}.OX X",
"f.f.f.f.h.f.s.h.f.h.h.h.x.M.M.M.B.B.D.M.&.@.&.} } ! G M k K R I k t k R @.6.} ~ R I I O.m.(.XX+X$X$XOXXX#X#XoX|.+X%X X[././.[. X",
"f.f.f.f.f.f.h.s.h.f.h.h.x.M.x.M.B.B.L.,.G G M 8 r z M k j l R R G p 9 0 K ~ T R R B J I ] z.U.XX$X#X$XOX#X#XOX|.|.OXOX X`./././.",
"f.f.s.s.s.s.s.h.f.h.f.h.x.x.M.M.B.B.d.M p M M g 9 9 j j s l { 0.@.G k r s K I J J I Z A D W r.R.&XXX$X&XOX#XOX|.`.|.}.[.`.[././.",
"s.f.s.s.s.s.s.s.f.f.h.g.h.h.M.v.M.F.6.H ! Y k k 9 2 t y t ! 0.;.K j w 0 q j G V C Z J Z B S I r.'.+XXXOX&X#XOXOX X[.[.[.`.[././.",
"s.s.s.s.s.s.s.s.f.s.f.f.f.h.x.x.D.k.#.d.J.} k r 9 9 y e s ! R A j 0 2 > 2 2 j M n B A D n Z A I r..X.XOXOXOX XOX X[. X[. X[.[./.",
"s.s.y.y.s.s.s.s.f.f.s.u.f.f.f.M.J.` 0.Z.} H _ _ p p w j k j j s w 3 9 w 9 2 2 t f n n B J l l B I v..XOXOXXXOXOX[.[. X X[.[.[./.",
"y.s.y.s.s.s.y.s.s.i.s.s.s.i.f.D.B.$.3._ H  .V._ s s M M l j s s j j j j w 0 9 w s j n n A A f n B W K.OXOX|.OX#X X[.%X%X X/.[.[.",
"s.s.1.s.s.s.s.s.y.y.s.y.y.1.x.D.b.#.$.! ` V./ b w L ` ! J V M b V B M v j p 0 0 p j d M n C n n Z k X.(.OX|..X%X|.%X|.%X[.|.|./.",
"1.1.s.s.1.s.1.y.s.y.y.1.1.s.M.B.j.3.$.P q.O.H x p _ } ` E L L L L D C V v j p 0 0 p a j n n n V n k s v.|. X|.OX|.|.[.[.[.|.%X[.",
"1.s.1.s.1.1.e.e.0.e.1.1.1.z.x.v.g.3._  .5.T H 6 d / $.} / E P P P L H H N v a w p 0 y s v v n A Z n u o.|..X.XOX|.|.|.[.[.[.|.%X",
"1.1.1.y.1.1.1.1.e.1.1.1.u.h.p.m.a.#./  ./ C v a N P ' ` E P / P P P Y L H N j a p y 0 a f k v B Z Z n n K.OXoX.X|.|.*X%X/./.[.*X",
"1.s.1.1.0.e.1.<.e.<.<.8.h.p.p.v.A.j.' $.T P a a H P E E P P P P T T T L H V v a 0 p 0 y d c c n c A D k :.'.OXoX X[.*X*X|.[.[.*X",
"y.1.1.1.1.<.1.1.<.:.<.g.p.p.z.c.D.C.+.} / T x j H T P T P P T T T T P P L V v j p 0 0 y j c f v c v n B Q U.}.oX[.}. X*X%X[.[.[.",
"1.1.1.1.<.<.<.<.<.:.i.z.i.z.z.m.b.a.3.' T T j x H P P P P T T T P T P P P H M j 0 1 y p a f d f n f u n B i./.|.oX X X*X*X X[./.",
"1.1.1.>.<.:.<.:.:.e.z.i.i.p.c.A.l.5.w.2.C T a v C L L P T T T T T T P P P N s 1 - 1 0 y p j f f n k u y j R K.{.*X@X X[.%X[././.",
">.<.<.<.:.:.:.:.e.p.i.i.i.p.c.G.m.:.l.+.P T x x L D P P T T T T T T T T C a 1 0 s s a i y s c d n v u u y f i./.|.*XoX X[.[.!.!.",
">.<.<.<.:.>.:.:.i.p.r.p.p.z.n.G.C.t.a.S P T x x C H L P P T T T T T H C y 0 a s s p p t y d f c c v 5 5 w u I Y.`.#X+X X}.{.[.[.",
":.:.:.:.:.:.=.r.p.e.i.p.z.c.S.R.G.4.%.S S T b x C P P T P P T T T P H N w a a p 0 1 5 3 s v n b m b u 4 2 u w :.[.{.}.[. X@X!.[.",
":.:.:.:.:.=.:.p.i.e.i.z.z.n.G.^.H.t.-.^ T T C b N M x a d x v C C P H N x a p 0 1 1 - - y v C A S Z n 5 2 2 y v K.`._.{./.oX{.Q.",
":.:.:.-.=.=.i.r.e.p.p.z.z.n.U.'.U.0.,.E P E D x y 6 3 1 2 3 y N C P C x x a a : 8 p 7 0 a M D I Q U n d 5 2 5 w ,.{._.{.[.{.[.!.",
":.:.-.-.=.r.p.e.e.i.p.z.n.G.^.'.R.8.0.` P T T x b N x a s a a d b P C x M a M s p p y d i b ` ) O.X.j j d w 4 4 Y _.{././././.[.",
"-.:.:.-.e.p.e.e.i.i.z.z.m.U.(.'.).j.a.' I U T b v a y 0 3 y d d x P C x C M j x j k b v j V } O.9.4.i 3 f f t 4 G E.{./.Q._./.I.",
"=.-.=.:.i.r.e.r.p.p.p.m.G.^.`.'.).F.u.' P P U m y 3 3 2 - p x M x P P x v N N N C V N M k L O.$.q.9.k - y k f w V W._._.Q././.E.",
"=.:.-.r.p.e.e.e.z.p.c.S.P.^.|.#X].~.l.} L U P D j 6 w i 0 s v M x C T N c V D C L H H V c H O.%.9.9.b 2 < t k j K W._.!.Q.!.!.!.",
"-.-.r.p.e.e.e.i.z.c.n.P.W./.T.z.{ *.l.4.U L L L v V c d v b N N b C T C b b L L L P L C b V #.*.5.9.k - 2 2 f f ] Q.Q.!.!.E.!.!.",
"=.:.p.i.e.e.e.i.z.m.P.^.I.r.F h ; e 3.%.U I U L v V L V C L L C b C T C b N L P P L D V b c ` 4.7.9.B * 2 2 w s u.(.E.!.Q.Q.Q.!.",
"=.r.r.r.e.e.i.n.S.m.x.@.h e h e 7 o % I R P L L c b L L L I L C N N / P b b C P P P L C b d C 4.5.5.V : < 4 2 w r.(.Q.!.!.Q.Q.Q.",
"e.r.e.e.i.p.z.e.e.F e e e e 7 % % % . > I R D b a d D L L P I L N D / / D N b C / P L C b x j %.7.5.v 0 2 < w 4 o.W./.Q./.!.E.W.",
"r.e.r.r.=.-.~ z e e h e 7 7 ; % $ $ % . j U b 3 O 3 N C I P P P V V T / L N b C P P L C N d a | t.q.c 3 2 < 2 w I E./.Q.Q./.W.E.",
"r.e.:.~ e e e q e 7 7 > ; % $ $ $ $ $ . 2 c , O O & s C C L P P C N b C b c b C P P D V v d 3 P a.q.d 5 3 2 2 4 ~ P.!.Q.E.E.Q.I.",
"o.K z e e e 7 > > ; % $ % % $ $ $ $ $ # = 3 + + @ @ 2 v V H P P U b c C C C C C P P D V N d < b q.5.c w 3 5 3 s e.P./.E.W.E.I.E.",
"e e e q 7 > ; ; % % $ $ $ $ $ $ $ $ X   4 u @ - * * + y v V C I L L C T C b N H P H C b d a - n 9.2.c y w y w f J c.T.Y.T.T.I.W.",
"7 7 > > ; % % $ $ $ o $ o $ o $ .   ; r Z u @ @ = * & * y M V V L L V a 0 : 1 0 a v N v N 0 * k 2.2.b 3 5 y y f c R G.U.G.Y.Y.Y.",
"; ; ; % $ $ $ $ . $ $ o o o $ . ; =.H.S.S 5 < - - * * + - a k v V b 1 + * 8 1 * * x M c v * * i +.2.T 5 3 y u c M d Q K.U.I.I.I.",
"; ; $ $ $ $ $ $ . $ o o $ . X ; v.+XR.r.c 5 < - - = + * O - i i k 0 + - 1 8 1 * 8 M M b y o * a | +.( w 3 y y d n f i W m.I.I.I.",
"$ $ $ $ $ . $ . $ $ $ .   l N./.`.R.a.Q c i 2 - 1 * + * + X - y a p 1 * * * * 8 j N N d 1 = O y U | ( i , 6 y y n Z s u I z.Y.L.",
"$ $ $ $ $ $ . $ $ $ . % @.(..X(.R.p.) S S d - < * & o * + O O - p j p 0 8 p x N H V M y , * * y C [ ^ x < 3 y y d k u u u Z g.I.",
"o $ $ $ $ . o . o . l S.).R.R.U.r.( D D n < < - * o & % + X X X * y j v H H H H J N s 3 1 * * r b ( ( c < < 3 y u u 4 y s u K x.",
"o $ $ . . o o o X f C.c.t.t.5.| ^ U S c w 3 < * + + + * X X O + # = y j M N M N d a y 0 : : & 0 m S ^ b , 2 , < 4 t w < 2 > < w ",
"o o o o o $ . ; D | 2.4.%.| ( ^ S b f 6 5 < @ @ + + * $ O # X + & * * 0 a a a p y y 0 1 > = X - c S S m - - - - < 2 y q > - = - ",
"o o o o o . l +.+.( ^ ( S S c c i u 5 3 < @ @ @ @ * $ O o X X X # * : 0 0 q p r p q 8 1 & X X @ 6 m m m < @ - * - - < w w q 4 q ",
"o o o o X 4 I S S C S S D c i 6 5 5 < < < - = = @ o o X X X X O # & 1 0 0 a y y a 0 0 $ X X X * 5 c m S 6 X @ * * * & - 2 4 4 q ",
"o o o $ 4 W b f i 6 3 < 3 5 , - @ - - @ + @ o o O X X # X X O X X # * : 0 0 0 0 8 : $ X X X X * < 6 m m i * o + & & o o $ & + $ ",
"o $ . > u u f c c d y 3 , , @ @ + X O X X O X X X O o O X X X X X X X X O + + O o . X X X X o : * w c S c - - $ X & $ + X & o $ ",
"o o o X o $ = < , 2 3 3 < - - = + + @ O O o o O X o + X X X X X X X X X X . . X . o X X X X o % @ < i m b < & $ X + % & $ o $ o ",
". $ o o X X . X + * - - , * - = @ * & $ o o o X X O O X X X X . . X . X X X X X # X X X X X X O $ @ i c m y X X X X o o $ X o $ ",
". . X X X X X X X X # & & @ & + & + + X + O O X X + X X X X X X . X X X X X X X X X X X X X O # + + 6 c b y + X O O # o $ o $ $ ",
"o . o o X . o o . X X X X X X X + X X O + X X O $ $ X X X X X X . . O . O . . X . . . X X X O X + X 2 c m i < X X X X X + + $ X ",
". . o . . X o o X . X o X X o X o X o X + o o X X $ X X X X X X . . . . . X . X X X X X X X X X & X - f c c < + X o X o X o o $ ",
"o . . . . X o $ X @ = $ X + + X $ X X X $ X o X X $ . X X X X X O . O . . . . X X X X . X X O X + X + u m c 3 @ + X X X X X o $ ",
". o . . . o o o : ; o o + o o X X + X X X X X X $ + X X . X X X X . . X . . X X X X X . X X X O X X $ 5 c m 5 = + X o X X # $ $ ",
"o o . o . . $ 4 = X $ @ o o o o X X X X X X X X X o X o X X . X . . . X . X . . X . . X X X . . X X X - c c c @ o # o o o X # # ",
"o . . o . o q > @ ; = o o $ o + X . + o X X X X + o X X . . . . X . . . X . . X . . . . X . . . X X X + i c c 5 + O X o o X O $ ",
". o . o o $ ; = + & = = @ + o o X X q q X + X X $ o o X . X . X . . . X X X . . X . X . . X X X X X X X 2 c c 6 + o X X X X # # ",
"o o . . o $ $ o X o $ $ o o X o X X : > X + X # o o + X . X . . X X . X X X X X . . X . X . X . X X X X @ f c f * o o X X # # $ ",
"o o . o o o o o . . . $ . o o . $ X & : X $ o o $ o O . . . . . . . X . . X X X . . X . X . . X . X X + X y c c < o o X o X X X ",
"o o o o o o o X . o . $ $ . . $ X X $ : # $ $ o & + + . . . . . . . X X . . . X X . X . . . . X . X X X X * x d 5 & X X X o $ X ",
"o o o o $ $ $ o o o . . . $ $ o X X & : . $ o o $ & X . X X X . X . X X X X X X X X . O X . . X X X . X X X s x y = O X $ X $ # ",
"$ $ o o . . X o $ o o o $ . . $ X X % = X o o + % = X O X . . X X . . . X X X X X . . . . . . X X X X . X X 5 d i * # X o . # # ",
">.>.>.=.X.k 4 = . o o o . $ . $ $ X ; = X $ $ $ ; ; X o X X X X . . X . . X X . . X . . X . X O . X . X X . < i d < o X # X X $ ",
"f.n.n.v.m.;.W ..~ o . o $ . $ . $ . > = X o $ & > * . X X X X . X . X . X . X . X X . . . . . . . X . . X X O 6 d w + o X X X $ ",
"z.z.z.x.c.r.....S.o.. o $ $ o o o . 2 % X X & % 9 * . . X X X X . X X X X . X X X X . . . O . . X . X X X X X 2 s u @ # X X X $ ",
"z.z.z.z.n.p.X...p.G.=.% o $ o o X X q * o o & % 9 - X X X . X X . X . X X X . X . X X . X X . . X . X X X X . * u u > X O # $ $ "
};
