/* XPM */
static char *f6fb8808c93e4a93cba05b986bff1d45[] = {
/* columns rows colors chars-per-pixel */
"64 64 218 2 ",
"   c #36362F",
".  c #353638",
"X  c #363648",
"o  c #38375B",
"O  c #2E346C",
"+  c #353769",
"@  c #353674",
"#  c #363973",
"$  c #35367D",
"%  c #36397C",
"&  c #3A3C78",
"*  c #423B70",
"=  c #3C424C",
"-  c #3F426B",
";  c #494958",
":  c #4F5071",
">  c #615B75",
",  c #6E6A76",
"<  c #82757C",
"1  c #B09379",
"2  c #D4B578",
"3  c #DEC07B",
"4  c #2E3883",
"5  c #363B84",
"6  c #353689",
"7  c #35398C",
"8  c #343695",
"9  c #353B94",
"0  c #353B9C",
"q  c #3537A7",
"w  c #353BA4",
"e  c #353BAB",
"r  c #3437B5",
"t  c #353BB4",
"y  c #353DBB",
"u  c #3C4489",
"i  c #38439B",
"p  c #3745A8",
"a  c #3D58A8",
"s  c #3642B4",
"d  c #3949B6",
"f  c #3642BC",
"g  c #3A54BB",
"h  c #4A4C89",
"j  c #4E5283",
"k  c #575389",
"l  c #464D98",
"z  c #4B5199",
"x  c #565996",
"c  c #645A8A",
"v  c #66588D",
"b  c #546597",
"n  c #6D728C",
"m  c #676498",
"M  c #4958A7",
"N  c #4F59AA",
"B  c #5764AD",
"V  c #4664B7",
"C  c #5569B6",
"Z  c #5B75BB",
"A  c #6F76AD",
"S  c #7575AB",
"D  c #6577B8",
"F  c #3336C4",
"G  c #353CC3",
"H  c #353DCB",
"J  c #353ED2",
"K  c #3744C4",
"L  c #3947C6",
"P  c #394BC5",
"I  c #3643CB",
"U  c #3749CC",
"Y  c #394BCD",
"T  c #3C58C7",
"R  c #3B53CB",
"E  c #3643D4",
"W  c #3747D7",
"Q  c #3846D6",
"!  c #394CD4",
"~  c #394CD9",
"^  c #3650D3",
"/  c #3B53D3",
"(  c #3D5BD4",
")  c #3B54DB",
"_  c #3D5BDB",
"`  c #3F61CB",
"'  c #3E65D6",
"]  c #3F61DC",
"[  c #4756C5",
"{  c #4467C9",
"}  c #4B73C5",
"|  c #587BC6",
" . c #4165D5",
".. c #436BD5",
"X. c #4064DC",
"o. c #436BDC",
"O. c #4876D4",
"+. c #4573DD",
"@. c #4778DE",
"#. c #497CDE",
"$. c #6B7CC4",
"%. c #446FE1",
"&. c #4777E0",
"*. c #497DE0",
"=. c #8A798D",
"-. c #8478A7",
";. c #807FB6",
":. c #5383BA",
">. c #7385BB",
",. c #588DCD",
"<. c #4B83DE",
"1. c #4E8ADC",
"2. c #5288D7",
"3. c #5496DC",
"4. c #6687C6",
"5. c #7A97C5",
"6. c #6F92D0",
"7. c #5AA3DF",
"8. c #6BAED9",
"9. c #4B83E1",
"0. c #4E8AE1",
"q. c #508EE2",
"w. c #4F93E4",
"e. c #5293E3",
"r. c #559BE3",
"t. c #599CE3",
"y. c #57A0E4",
"u. c #59A4E4",
"i. c #5CACE5",
"p. c #5BAAE9",
"a. c #5FB2E6",
"s. c #5EB5E8",
"d. c #57A2F0",
"f. c #61B5E7",
"g. c #62B4E7",
"h. c #63BBE7",
"j. c #63BCE8",
"k. c #78BBE4",
"l. c #65C2E9",
"z. c #69C4E9",
"x. c #79CDE7",
"c. c #8D888F",
"v. c #9A968D",
"b. c #9B9B97",
"n. c #9C9C94",
"m. c #A5998C",
"M. c #A49A8D",
"N. c #A39D93",
"B. c #A99E93",
"V. c #A39C9B",
"C. c #A89A9C",
"Z. c #B89F95",
"A. c #9FA199",
"S. c #B0A187",
"D. c #A6A096",
"F. c #AAA296",
"G. c #A4A39B",
"H. c #ACA59B",
"J. c #AEA89D",
"K. c #B4A79D",
"L. c #B2A99E",
"P. c #8587B8",
"I. c #9496B0",
"U. c #AA9CAB",
"Y. c #97A4B0",
"T. c #A8A6A3",
"R. c #ACABA3",
"E. c #ACADA9",
"W. c #B3ACA3",
"Q. c #B3AEA9",
"!. c #BAABA9",
"~. c #AEB1AC",
"^. c #BEB1A3",
"/. c #B2B1AB",
"(. c #B8AAB9",
"). c #ABB2B4",
"_. c #B6B5B6",
"`. c #D1BC90",
"'. c #C4B8AB",
"]. c #C0ABBE",
"[. c #CBB5BA",
"{. c #DBBEB8",
"}. c #BFC0B7",
"|. c #DCCB91",
" X c #D9C895",
".X c #E5CD88",
"XX c #E6D28B",
"oX c #E3CB9E",
"OX c #E6D795",
"+X c #EBE298",
"@X c #D2C3AE",
"#X c #DCC6B7",
"$X c #E3C4A2",
"%X c #E5DAA4",
"&X c #E7E1A8",
"*X c #E8E4B8",
"=X c #8293C9",
"-X c #9897C9",
";X c #99A4CE",
":X c #90ADD2",
">X c #A8A6CA",
",X c #B7ABCC",
"<X c #B4ACD1",
"1X c #B3B6D1",
"2X c #C9B2C3",
"3X c #C5B4C8",
"4X c #C8BBD7",
"5X c #B2C7DB",
"6X c #93C5E0",
"7X c #D6CBCF",
"8X c #CAC3D7",
"9X c #D8D6D7",
"0X c #E9D7D2",
"qX c #E9E6C6",
"wX c #E7E7D5",
"eX c #F0EFD3",
"rX c #D9E1E3",
"tX c #E7E8E4",
/* pixels */
"o + @ 6 8 q t G I Q ! I L e h , m.m.m.m.m.m.B.B.B.B.B.F.J.F.H.F.H.H.J.J.J.J.J.J.J.J.L.L.R.W.L.W.^.L.K.^.K.L.L.K.H.H.F.B.B.m.m.m.",
"+ + O @ 6 8 w y I I ! ! Y L w $ , m.m.m.m.B.B.F.B.F.B.F.S.F.F.J.F.J.J.L.J.J.J.J.L.L.W.W.L.W.W.L.K.K.K.K.W.L.J.J.H.H.K.F.B.m.m.m.",
"+ @ + + @ 6 0 t G I Q I ~ W I t u < m.B.B.B.F.C.F.D.F.F.J.F.K.H.J.J.J.L.J.L.L.L.L.W.W.W.W.W.W.W.W.L.L.W.W.W.L.L.J.H.F.F.D.M.m.m.",
"+ $ 6 $ @ 6 q t G H I Q Q Q E K e h c.N.C.B.B.F.F.F.F.F.F.F.F.F.J.J.S.L.L.L.W.L.W.R.W.W.W.W.W.W.^.W.W.^.W.R.L.L.J.K.H.F.B.M.M.v.",
"@ $ 8 8 7 8 q r G H I I U ! ! E K e b C.V.B.D.D.F.F.F.H.H.H.H.H.J.J.L.L.L.R.W.L.W.W.W.W.W./.Q.W.W.^.W.W.W.W.L.L.L.H.F.D.B.N.m.m.",
"6 6 8 q e q e t G I E E E E ! ~ ! L p n C.B.F.D.F.F.F.F.H.H.J.H.J.J.J.L.L.R.W.W.W.W.W.W.^.W.^.W.W./.^.W.^.W.L.L.H.H.F.F.F.N.M.M.",
"6 8 q e G y y y I E E Q I I Q ! ~ ~ U p A C.G.N.F.H.H.H.H.K.J.J.J.L.W.L.L.L.L.W.W.W.Q.^.W./.W.^.^./.W.W.W.W.W.L.L.F.D.F.D.D.N.M.",
"q 0 r r G G G H I Q W Q Q H I U ! ~ ^ Y g P.U.T.F.F.H.H.H.T.H.J.J.J.L.R.L.W.W.W.W.Q.W.W.!.W./.W.Q.W.^.W.W.R.L.H.F.F.B.D.N.D.M.v.",
" .r y G H I I E E ! ~ ~ ~ E K I W ! ~ Q P } I.U.C.H.H.H.T.C.J.K.L.W.L.R.W.W.W.W.W.^.Q.W./.^./.Q.!.W.W.W.W.L.H.C.H.F.N.N.N.n.v.M.",
"e.T F H I W E ^ W ~ ~ ) ~ ~ G G U ) _ _ U T >.C.H.H.H.H.H.J.K.J.W.J.J.W.W.W.W.W.W.W.^.W.W.^.W.^.W.W.W.R.H.T.H.H.F.D.B.D.N.N.M.n.",
"0.0.U H E ~ ~ ~ ! ! ) _ _ ) Q K G ! _ _ / I M I.T.H.H.H.J.J.K.T.L.J.W.W.W.W.W.W.W.W.Q.W.W.Q.W.W.W.W.W.J.W.H.H.H.F.D.D.N.M.N.n.n.",
"*.q.@.H ! ~ ~ ) ) ) _ X._ _ ) ! H W ) _ _ / f A T.H.H.H.J.J.T.K.L.W.J.W.W.W.W.W.W.Q.W.W.W./.W.W.W.W.W.W.T.H.H.H.F.D.D.B.n.M.n.v.",
"*.9.e.X.Q ) ) _ ) ] X.o.X._ _ _ ! ! _ X.X._ / V U.T.J.H.J.H.K.K.L.R.W.W.W.W.W.W.W.W.W.W.W.^.W.W.W.W.J.W.H.H.H.H.G.D.D.B.D.M.n.v.",
"@.9.0.0.~ ~ _ _ ) X.o.o.o.o.X.] ] X.o.o.o.R f { P.E.b.H.J.J.R.R.W.R.W.W.W.W.W.W.W.W.W.R.Q.R.W.W.W.T.J.T.R.H.H.H.D.D.D.N.N.n.b.v.",
"o.9.<.q.&.~ ] ] _ ] X.%.%.o.o.o.o.X.+.@.@.T z M S I.c.H.J.J.R.R.W.R.L.R.R.W.Q.W.W.Q.W.W.W.L.R.R.!.R.J.R.H.T.T.F.H.D.N.N.B.b.N.n.",
"o.<.0.0.w.X._ ] _ ] o.%.+.+.%.+.*.o.@.9.*.} v =.-.C.S.H.J.J.K.R.L.L.R.J.L.W.R.W.W.^.W.W.W.W.W.W.R.R.R.J.T.H.H.F.G.G.G.G.b.n.n.n.",
"X.*.<.0.q.9.] X._ o.] +.+.&.+.&.*.@.@.w.O.n =.Z.C.K.K.H.T.J.J.J.T.W.W.!.^.W.Q.W.W.W.W.R.W.W.W.W.R.R.J.T.G.G.R.J.G.G.D.A.A.A.n.n.",
"_ @.9.0.0.q.@.] _ ] ] o.+.+.@.+.*.*.*.w.7.1 Z.!.!.^.H.C.R.R.!.'.'.[.'.!././.W.W./.W./.W.Q./.R.R.R.W.W.W.R.R.G.G.G.G.A.D.A.n.n.v.",
") +.9.0.0.q.0.9._ _ o.o.' &.9.&.*.*.9.3.8.C.Z.!.Q.E./.Q.V.H.c.c.=.C.{.{.#X_./.Q././.W././.Q.W.E.E.E.W.R.R.G.R.G.G.G.G.A.A.n.n.n.",
") o.9.0.0.0.q.u.r._ X.+.&.&.9.*.9.0.r.i.a.I.Z.(.(.[.c.: - - # + O + : m I.U.^.^._./././././././.E.R.R.R.R.R.R.G.G.G.G.A.A.A.n.n.",
") X.#.9.0.0.q.q.3.w.' &.&.*.9.9.<.t.s.s.s.:XU.(.>X>.u # # + + + + # + O 4 u z >._._.)./.~./.~././.R.W.E.R.R.T.R.E.A.A.A.A.n.n.n.",
") X.&.0.q.0.e.q.#.t.9.@.*.*.9.9.1.u.h.s.s.k.].=.V O.3.e.u + & # + & # % # u 9 9 N Y._._././.~.E./.E.E.E.R.R.T.T.G.E.G.A.A.n.n.n.",
") ] +.*.0.e.e.e.w.y.r.9.@.*.9.*.q.i.h.h.l.p.B l w.i.i.r.i $ @ $ @ # % # & % % i i a >.).).).~.E.E.E.E.E.E.R.T.T.E.G.G.A.A.A.n.b.",
") _ X.*.0.e.e.e.y.i.i.r.9.@.9.#.q.i.j.h.h.w.s 3.p.u.i.1.i 6 $ 5 % # $ # # 4 u 7 i i p Z >X_.).)./.E.E.E.E.R.E.T.G.E.A.A.A.n.n.n.",
") ) X.+.9.e.e.e.t.i.s.s.t.<.#.9.q.i.j.l.f.{ 1.a.y.r.<.{ 9 7 $ 5 $ % # % # 7 i 7 7 i i p } ;X_.).).~.~.~.E.E.E.E.E.A.A.A.A.n.n.b.",
"_ ) X.o.9.q.e.r.t.i.a.f.a.e.9.0.e.i.j.l.3.{ i.t...U ' { 9 6 $ 7 5 $ $ $ + 6 9 i 9 9 i i a } :X).).).).~.~.E.T.G.E.G.A.A.A.n.v.v.",
") ) +.@.#.q.e.e.r.f.f.f.f.u.e.e.t.a.l.l.3.1.u.<.^ o.0.` 6 9 6 7 8 7 6 5 % 7 0 p w p 9 i i a $.U.b.A.T.E.G.A.v.n.A.b.b.n.v.c.v.c.",
"_ ) &.0.9.q.e.r.3.a.h.h.f.i.u.u.7.h.l.l.f.3.t.e.9.0.#.R 8 0 9 7 0 w 9 7 7 9 w s s p 0 p i p V ,X}. XOX|.1 2 |.|.|. X`.`.2 `.`.`.",
"_ ~ %.q.9.0.q.e.e.u.h.h.h.i.i.i.i.h.h.l.l.7.y.y.+.g d w 0 0 w 0 q d e 0 i w w d P f s d p i d D 7X@XoXXX|.3 .XOXOXXXXXXXXXXX+XXX",
"_ _ ] &.9.9.0.e.e.y.f.h.h.f.g.i.a.s.h.l.l.f.i.y.T s T P w w e 0 e U U s s s f L P R R R T p a P -X0X#XOXXX.XOX%X&X+X+X|.|.XX|..X",
") ) _ o.+.9.9.q.q.r.f.h.g.f.f.f.f.h.h.l.l.h.a.3.9.9.w.+.s t s e t / ' P d L / ( ( ( X.X.' g g { T -X0X7X X.X+X*XwX*X&X+XqX&X&X+X",
") ) ) ] o.*.9.q.0.r.a.f.f.a.f.f.j.h.h.l.l.h.i.3.t.r.e.*.K t K y G R 9.' f L ] ] X.o.o.+.+.( R ..d T =X4X8X%X+XqXtXrX*X&X*XwXwXqX",
") ) ) _ ] +.9.9.q.e.f.s.a.a.a.f.f.h.l.h.j.h.i.<.e.y.y.q.( f K Q U Y <.&.R t K / X.X.+.+.+.o.( o.P P O.:X7X7X%XqXtXtX*X&XwXeXqXwX",
") ) ) _ o.+.*.0.0.3.i.f.a.a.a.a.h.h.f.h.h.s.y.<.r.u.u.r...K U ( ] / &.0.' f y f Y X.X.( o.+.X.&.R Y +.k.9X6X5X7XwXeX+X&XwXqX+XXX",
"_ ) ) _ o.&.*.9.9.e.i.a.f.a.g.f.f.h.f.f.s.a.y.t.u.p.i.t.9.R ! ] o._ +.q.*.X.R t t P ( Y ( o...+.~ / +.t.5X:X6X}.}.}.@X@X&XtX%X2 ",
") _ ) _ ] +.&.9.<.q.i.g.g.s.g.f.h.f.f.f.a.i.g.g.i.a.i.u.e.' / ] +.] ' q.r.w.` e t y ( L Y o.#.o._ ] %.w.5.5.5.Y.n n n Y.qXtX7X9X",
") ) ) ) o.&.&.9.9.q.i.g.f.s.g.h.f.f.f.g.s.e.t.s.s.a.a.i.r.../ X.@.#.( w.i.r.1.{ f r U K ~ ] +.( _ / U <.5.-.8.n , , > v.wXrX7X9X",
"_ _ ) ) ] ( +.*.9.q.i.a.f.f.h.g.f.f.a.g.s.r.<.g.f.a.a.a.u.+./ o.0.0.o.q.u.e.y.*.R { { @.<.U U G Y K s 4.>.n :.b ; > : c.qXrX9X9X",
") ) W f I H _ @.9.q.i.g.f.f.f.f.f.a.g.a.a.i.i.i.i.a.s.g.a.0./ +.0.r.+.1.r.P 0.e.q.<.o...1.R H H ..( 9.:.b j :.j ; : ; c.0X9X9X9X",
"W W I e U ) _ o.*.q.i.a.f.f.f.f.a.g.a.g.i.r.u.a.i.g.s.g.a.e./ ..q.t.@.<.+.' 0.9.E F F H +. .H E 9.o.V a h ; b ; = = = , 7X7X8X5X",
"E r f ) f t ) _ #.q.i.g.g.g.f.a.a.f.a.a.u.3.i.i.i.a.f.f.f.e./ +.w.u.@.o.+.../ @.R H H H +.+.H U +.O.: b u . j = = . . =.8X6Xk.z.",
"t K K y 8 i _ _ %.q.i.i.a.a.a.a.a.a.a.i.y.u.a.a.a.a.f.f.a.1./ #.q...Y Y s r G  .+.H I G ! #.P I ' r.k.:X,.:.5.-XY.Y.c.).5Xz.j.z.",
"8 e 4 8 y ! X.+.&.q.u.i.i.a.i.i.i.i.u.u.t.i.a.s.f.f.a.i.y.+._ &.T q G I r q I ( 2.I G H E @...H ' 8.1X1X1X8X2X#X}.@X@XoX}.l.h.s.",
"q 6 q G I R U ~ o.9.t.u.u.u.u.u.u.u.u.u.3.t.i.i.u.u.r.w.@.X.] ] f q K G y q K X.q...H I I o.+./ 6.{.#X#X#X@X{.$X%X X|.@X6Xl.l.f.",
"! I ~ ~ Q _ +.T y L / +.q.e.r.r.r.y.y.y.+.+.&.&.%.] _ / U / _ ! e t G t G G I _ *.*.F G H ( @.-X,X].[.2X2X2X2X[.[.2X4X1X6X6Xk.k.",
") ) ) ~ Q y f d p T } } d T o.*.w.w.d.} w e f ~ _ o.o._ I R ) s 6 t t r I I G I o.q.! I Q  .*.;X3X3X2X].].,X,X3X4X4X4X4X4X8X8X4X",
") ) ) ) ~ I E ! q.x.x.x.8.:.p d ' +.M o . . X O i ^ _ R K / U 0 q t q r G Q K Y o.t. .! (  .Y 2.>X>X>X,X4X<X<X4X,XU.<X<X4X<X<X<X",
") ) ) ~ ~ ! E J I ] #.<.t.s.k.=.+ # + @ + .       % L K Q ! f 8 q e r y I _ ! / #.t.u.o.( o.Y Y $.U.>X>X;X;X;X>X>X<X<X<X<X>X-X-X",
") ) ) ~ ~ ~ ~ J J W W W W W ~ Q w 7 % 6 8 o . . . X w Y ! U w q t t f f ( #.#.+.0.e.e.I F L +.K o.5.P.;.=X;XP.P.-.-.-.-.-.-.-.-.",
"~ ) ) ) ~ W ~ ~ J J ~ ~ W ~ Q Q J H q 7 8 0 i g d w L Y ! d w K L  .+.( / ( ( H I ) +.F G F ..Y %.,.P.4.>.;.D S A m v v v k > c ",
") ) ) ) ) W W ~ J F ~ ~ ~ ~ ~ Q I J t 5 $ $ 6 f e L ! K Y K Y I K L F y F I ) /  .o.+.X.R / ] / _ o.>.6.D v v v v v v v v > k v ",
") ) ) ) ~ J W W J F J ~ Q Q Q Q J t d % $ 6 d w f / Y K ! Y t G t L ` +.#.<.0.q.e.e.r.e.9.9.<.e. .[ ;.D x x k : h h k k k k h : ",
"~ ~ ) ) ) W J W J J Q W ~ ~ Q J K X u * o 5 d w Y Y K U I r K o.&.9.9.0.0.0.q.q.e.e.e.9.*.0.q.q.e.| A x h h l z l z l l h l h l ",
"~ ~ ~ ~ ) ~ J J J J Q W ~ ~ J ~ 4.m * * o o 5 f Y t f ! I ( %.*.<.9.9.9.9.0.q.e.e.e.#.<.q.q.w.0.0.q.q.} N z l z z z l l i l i l ",
"W W W W ~ ~ ~ J J J W W W ~ W $.A $.v @ o o 6 d s 8 L _ _ +.#.*.*.*.*.0.0.0.e.e.0.#.<.q.0.0.0.9.&.&.*.9.q.,.C M z M l M N N N l ",
"J J J W ~ ~ ~ J J J W ~ ~ W [ S S S x X ; + 9 s 9 q ( X.o.+.@.*.*.*.9.9.0.0.q.9.#.9.q.0.0.9.9.@.' _ X.&.<.9.w.3.,.4.4.4.| Z D D ",
"q H J Q Q Q Q J J Q Q Q J [ A m c N p # ; : l t f _ X.o.%.+.#.*.9.*.9.9.q.q.9.*.0.0.9.9.9.9.+.R ] ^ ( ] ( #.i.f.z.z.j.j.i.,.D C ",
"0 q G J J Q Q J J Q Q J I B N k k d e & > v i I _ ] o.o.o.+.*.*.*.*.*.9.9.9.9.0.q.9.*.9.9.o.Y / _ / _ P } r.3.a.j.9.+.<.<.<.2.,.",
"F r e r J Q ~ Q J Q J I N z h v B s w + ; h J [ _ o.o.o.+.*.*.*.*.*.9.q.9.0.9.0.9.*.9.*.o./ U _ _ / f } w.9.y.h.@.T *.*.<.<.<.<.",
"J H H G F J J J J J J N B B N m d s 7 o * [ ~ ) _ o.o.o.+.&.#.#.*.9.9.9.9.9.9.*.*.9.+.o./ U / _ ) K T w.<.r.j.#.y ..*.*.@.<.e.3.",
"J J H J J H J J J J [ Z C | 4.Z s 0 + - [ ) ) ) _ o.o.o.@.@.&.#.*.*.9.9.9.9.*.*.9.+.o.( U ^ _ _ ! s 3.<.q.s.3.G / %.+.+.@.*.9.w.",
"J J H J J J J J J L Z | C | 6.Z w # X l Q ) ) ) ] o.o.%.+.&.&.#.*.*.9.9.9.*.*.*.o.%.( L ! _ _ _ K ` r.<.y.j.{ L ] o.o.&.0.' *.<.",
"J H H H J Q Q Q Q Y | D B B | d 7 X h ! Q ) ) _ ] o.o.%.&.&.*.*.9.9.9.*.#.*.*.o...R ! / ) _ _ ) s 2.w.1.i.i.L ) _ ' +.*.&.' 9.&.",
"Q H F y J Q J Q J R | $.B m B p + o y Q ! ) _ _ ] o.o.&.&.&.*.*.9.*.*.*.*.@.o.o.Y K _ ~ _ X.] ^ d r.1.r.h.1.K / / o.*.*.' o.9.o."
};
