/* XPM */
static char *_74875e48e6241c0fe4d1fe0c8b0bc12[] = {
/* columns rows colors chars-per-pixel */
"64 64 215 2 ",
"   c #0F0000",
".  c #120100",
"X  c #1B0500",
"o  c #150800",
"O  c #220C00",
"+  c #220700",
"@  c #2C1301",
"#  c #291705",
"$  c #341400",
"%  c #3D1C01",
"&  c #391E09",
"*  c #341D00",
"=  c #300E00",
"-  c #3C2108",
";  c #2E2017",
":  c #421E01",
">  c #4A1E00",
",  c #442202",
"<  c #4B2502",
"1  c #4D2905",
"2  c #462408",
"3  c #4A2609",
"4  c #4D2B0B",
"5  c #472A08",
"6  c #522602",
"7  c #532B05",
"8  c #5B2C03",
"9  c #532D0B",
"0  c #5A2E0B",
"q  c #582704",
"w  c #54310D",
"e  c #5C320D",
"r  c #5E3105",
"t  c #5B2F13",
"y  c #552F13",
"u  c #4C3114",
"i  c #563212",
"p  c #5B3313",
"a  c #5C3B14",
"s  c #5E3E19",
"d  c #5B3819",
"f  c #4B2910",
"g  c #633206",
"h  c #63350D",
"j  c #65380F",
"k  c #6C3B0D",
"l  c #6A360D",
"z  c #623612",
"x  c #643A14",
"c  c #6C3C14",
"v  c #643D1A",
"b  c #6B3E19",
"n  c #653516",
"m  c #713E15",
"M  c #733E18",
"N  c #703B0F",
"B  c #4B3921",
"V  c #6C4115",
"C  c #63431C",
"Z  c #6D4219",
"A  c #684619",
"S  c #744316",
"D  c #7A4416",
"F  c #7C4916",
"G  c #74441B",
"H  c #7A461B",
"J  c #76491E",
"K  c #7C4A1B",
"L  c #7F511E",
"P  c #78470F",
"I  c #5E4C38",
"U  c #55432B",
"Y  c #654522",
"T  c #684622",
"R  c #6C4B25",
"E  c #6E4E2A",
"W  c #654926",
"Q  c #7D4A21",
"!  c #704E2B",
"~  c #764620",
"^  c #6E5029",
"/  c #73532D",
"(  c #7A562B",
")  c #7A5A2E",
"_  c #765326",
"`  c #765631",
"'  c #795736",
"]  c #765B33",
"[  c #7B5C35",
"{  c #7E5E38",
"}  c #7E613B",
"|  c #7C6035",
" . c #7B6649",
".. c #834D15",
"X. c #824D1C",
"o. c #8D4A1D",
"O. c #835017",
"+. c #85521B",
"@. c #8B551D",
"#. c #8D581F",
"$. c #8B5217",
"%. c #93561E",
"&. c #94591E",
"*. c #995B1F",
"=. c #924B1D",
"-. c #814E20",
";. c #855121",
":. c #8B5623",
">. c #8E5921",
",. c #845C2C",
"<. c #935621",
"1. c #945B23",
"2. c #9A5D24",
"3. c #955E29",
"4. c #9B5F28",
"5. c #995322",
"6. c #835E36",
"7. c #946125",
"8. c #9C6126",
"9. c #95622B",
"0. c #9D622A",
"q. c #9B692E",
"w. c #846135",
"e. c #83633C",
"r. c #8A663A",
"t. c #8D6A3C",
"y. c #87663A",
"u. c #916C3D",
"i. c #986936",
"p. c #9D733B",
"a. c #A2652C",
"s. c #A5692E",
"d. c #A6682C",
"f. c #A56A31",
"g. c #A96C33",
"h. c #A86C38",
"j. c #A46635",
"k. c #AD7135",
"l. c #AB723A",
"z. c #A3753B",
"x. c #B3763D",
"c. c #866641",
"v. c #866942",
"b. c #8B6C44",
"n. c #8D6D4A",
"m. c #886640",
"M. c #916E42",
"N. c #906E4A",
"B. c #8E7145",
"V. c #8E714B",
"C. c #937245",
"Z. c #9B7544",
"A. c #9C7845",
"S. c #93744B",
"D. c #99774B",
"F. c #96794D",
"G. c #9B7A4D",
"H. c #896E55",
"J. c #957651",
"K. c #987652",
"L. c #957951",
"P. c #9A7A52",
"I. c #9D7D58",
"U. c #8C7253",
"Y. c #A17D4D",
"T. c #A87A45",
"R. c #A17F52",
"E. c #A17F59",
"W. c #B37741",
"Q. c #9E8155",
"!. c #9F825A",
"~. c #9C804E",
"^. c #A4814D",
"/. c #AA834C",
"(. c #B3864C",
"). c #A48354",
"_. c #AA8653",
"`. c #AC8954",
"'. c #A48459",
"]. c #A9875A",
"[. c #A5885A",
"{. c #AC8B5A",
"}. c #A78852",
"|. c #B28C54",
" X c #B28E5A",
".X c #BA8F56",
"XX c #B59256",
"oX c #BA9556",
"OX c #B5925C",
"+X c #BC955A",
"@X c #BD995E",
"#X c #AF915F",
"$X c #A88A64",
"%X c #B38E61",
"&X c #AE9063",
"*X c #AD946C",
"=X c #B49361",
"-X c #BA9662",
";X c #BC9A64",
":X c #BC9C6B",
">X c #B39769",
",X c #BC9F75",
"<X c #BFA16F",
"1X c #BCA070",
"2X c #C4995E",
"3X c #C59D64",
"4X c #C3A36D",
"5X c #CAA468",
"6X c #D1AB6D",
"7X c #D5AE73",
"8X c #D9B375",
"9X c #D8B376",
"0X c #E4BC7F",
"qX c #E5BD80",
"wX c #E7C183",
/* pixels */
"oX2X+XoX+XoXoXoXoXoX+X+XoXoXoXoXXX(./.}.&X$XH.I ; . . X = : 6 r k P F $.#.#.>.7.1.9.7.2.0.3.4.2.7.8.2.8.1.*.8.8.8.1.1.%.%.$.+...",
"+XoX2XoXoX2XoX+XoX2XoXoX+XoXXX@X-X>X[.v.Y * X . . O & B C A G H L O.#.O.O.@.#.O.@.>.@.1.@.%.<.<.3.1.1.3.7.8.8.8.0.0.0.8.8.0.0.8.",
"2XoXoXoXoX+XoXXXoXXXXXXX@X<X<X>XJ.I # .   . X $ 3 i n G F +.:.>.#.#.7.7.#.1.>.7.1.1.1.@.1.1.<.>.1.>.1.&.1.1.&.1.1.2.2.2.2.2.7.0.",
"+X+X2XoXoXoXXXXXXX@X<X<X&XV.W * .     o # ; f p x V H K L O.L @.O.@.@.#.7.&.7.#.#.#.1.1.1.3.0.1.7.1.>.1.2.7.3.3.3.7.1.2.1.1.1.%.",
"2X+X+X+XXXXX;X4X1X*XU.U #       X @ % 4 p p n b K ;.;.@.@.@.+.+.@.+.>.>.@.#.@.@.%.@.@.&.1.1.3.3.3.7.3.2.1.1.1.4.4.4.4.a.0.q.4.4.",
"XX+X>X:X<X1X&Xv.s @       O # - f t x b S S F X.X.O.+.@.#.#.#.>.#.>.1.>.1.1.*.2.1.2.1.&.1.2.1.2.3.2.3.3.1.2.2.1.1.1.2.4.4.2.2.5.",
"3X<X,X$X .B #       O = % 4 a z c D H X.X.+.+.X.O.X.$.+.O.O.O.@.O.+.@.1.0.0.8.0.a.8.8.*.*.1.2.%.&.1.&.1.1.1.<.%.3.3.1.1.3.2.1.3.",
"'.] u O       o @ & 4 t n S D X.X.+.o.@.O.O.@.:.>.@.@.@.+.#.@.@.@.+.1.9.0.0.2.0.8.8.8.a.8.8.4.4.2.1.2.&.@.1.1.1.1.&.3.5.*.*.3.3.",
"o       + @ % 3 w a V S F X.@.:.&.#.#.q.0.1.@.>.1.3.1.&.>.1.1.@.1.l.h.0.2.2.1.2.2.*.2.1.8.8.8.8.8.4.4.4.4.a.a.4.2.8.4.2.2.2.2.3.",
"o O & f d v b Z S F O.$.@.1.2.1.8.1.1.l.k.W.h.3.@.@.%.1.7.1.>.a.l.h.a.a.2.8.8.0.2.2.2.2.*.2.2.*.2.2.*.*.2.4.4.0.a.0.8.8.a.4.4.5.",
"9 v S J ;.:.:.>.1.2.2.2.2.8.0.4.8.1.8.4.4.h.W.W.(.(.2X5X5X3X2XW.j.j.5.4.0.q.0.s.d.8.a.a.0.0.4.4.8.8.%.2.<.2.5.4.2.2.2.2.2.4.0.2.",
"S ....@.1.8.a.d.s.s.f.a.d.d.s.s.a.a.8.8.<.@.9.i.5XwX0X0XwXwX+X9.j.5.=.a.f.s.s.d.f.0.a.s.s.s.a.4.8.a.a.a.4.4.4.2.2.2.2.2.1.1.2.2.",
"....$.%.*.8.8.8.a.d.d.d.d.d.d.d.d.s.s.s.5.D ;.p..X7X8X8X9X9XOXA.i.M o.j.j.a.f.s.f.g.s.s.g.f.g.f.s.q.a.s.a.4.a.a.4.d.a.4.a.4.4.4.",
"%.%.&.*.*.*.*.*.*.*.2.2.2.8.8.d.a.a.a.8.5.H 3.`.2X5X7X8X9X6X:X XT.:.4.h.1.4.8.2.8.a.d.d.a.s.f.s.f.f.f.s.d.d.a.d.a.d.d.a.a.a.a.d.",
"8.4.8.2.2.2.*.8.*.*.2.*.2.2.*.*.&.*.%.1.3.3.A.{.;X4X7X9X9X6X4X-X{.T.W.2X3.1.3.2.2.%.4.*.1.7.8.2.8.a.f.q.d.g.d.j.g.d.g.j.g.h.d.d.",
"%.%.<.2.2.8.8.*.*.*.2.2.2.2.4.2.2.1.&.>.9.A.}.&X&X-X:X3X3XOX).].%XR.-X8X(.>.1.1.*.2.&.&.&.*.2.2.1.1.2.2.4.4.4.a.a.a.a.d.d.d.d.d.",
"*.*.%.&.%.&.2.%.&.&.&.%.*.*.5.1.2.1.7.#.i.}.OX_ $ Y ^.=X}.A O s  X@X@X6X5X9.>.#.@.@.%.@.@.>.<.%.1.1.8.2.2.2.1.4.2.1.2.2.4.4.4.4.",
"*.*.2.*.&.&.%.%.&.%.%.%.*.*.*.2.&.2.&.7.p.~.#XB., 4 M.#X}.a 5 V.:XXXXX2X6X(.7.1.1.3.&.1.1.@.$.@.#.&.<.1.1.3.1.1.1.2.3.8.2.2.5.2.",
"2.*.*.2.2.8.*.2.2.*.<.1.*.%.*.*.2.&.&.7.i.u.F.#X&XK.Y.;XXX`.:X:X`.}.`.+X5X3Xz.q.7.0.4.4.0.2.4.4.4.1.1.1.1.1.1.>.%.&.&.1.1.#.1.>.",
"8.8.8.2.8.2.2.4.a.4.a.0.2.2.2.4.7.0.z.z.Z.u.y.B.{.{.C.R.^.>X>X^.p.^./.XX@XXX|.XX/.q.1.0.4.4.4.0.4.4.0.0.0.3.9.0.3.1.#.>.>.@.>.>.",
"8.8.8.4.*.8.*.8.2.2.0.0.8.8.8.7.f.2X|.T.u.u.y.| M.G.u._ A.`.R.Z.A./.`.(.XX|.(..X+X.Xq.:.1.<.1.3.1.1.1.3.3.8.3.0.0.0.0.8.8.7.0.3.",
"0.0.0.2.8.8.*.1.1.3.2.2.*.*.*.7.XXXX_.C.C.C.t.y.r.r.w.V ,.u.M.Z.A./. X(.|.`.`.XX XXX X3.:.1.1.<.>.>.@.%.1.>.1.3.7.1.7.3.9.0.0.0.",
"F ;.+.:.3.>.7.>.3.1.1.1.%.&.#.z.+X X_.Y.C.C.M.t.w._ J ( ,.,.,.i.p./.(.`.`. X|.`. X`.{./.9.1.1.1.<.<.<.<.>.>.@.>.@.@.<.#.>.>.1.1.",
"8 8 8 g h k N S D X.+.:.>.9.7./.XX X_.T.Z.M.C.t.w.,.w.6.6.,.w.u.Z.`.`.(.`.|.].XX X]./.}.T.9.2.0.4.4.3.4.0.3.1.1.1.<.%.@.>.>.>.1.",
"< 6 > > 6 6 6 6 q 8 r r h k :.`.`.`.^.Y.C.C.A.A.u.t.t.t.t.r.u.Z.A./.|.(. X`.T.^.}.).).^.`.T.q.0.a.8.4.a.0.0.4.1.1.2.<.<.1.&.1.4.",
"p e 9 < , , > > > , < > < > _  X}.Y.A.Z.M.C.D.R.Y.Z.C.u.t.t.Z.A.^././.|. X|./.Y.~.G.D.^.}.}./.f.d.d.d.d.a.a.a.a.4.2.4.4.8.3.4.a.",
"v.} [ ' E W C d t 4 4 , < : r.{.}.A.Z.M.t.t.D.G.^.).^.G.Z.A.G./.}./.`.|.OX.X_.C.u.C.G.). X}.}.z.s.d.d.g.h.j.g.g.g.g.g.g.f.f.d.a.",
"L.L.L.V.V.b.v.c.e.6.' ! R s C.}.).D.M.y.( y.C.G.R.].].).).).^.}./.}. X|.OX.XOX`.w.y.G.^. X`.`.p.f.d.d.g.g.k.x.k.g.h.g.g.d.d.d.f.",
"L.L.L.L.J.V.b.b.m.M.b.b.c.c.G.).).D.M.e.R e.C.C.Y.R.^.G.G.^.).).}.}.|. XOX%X+X%X_ A D.P.`. X/.i.q.f.f.s.s.k.k.s.x.k.k.k.g.g.s.s.",
"L.L.J.L.K.L.n.B.b.b.b.b.c.c.~.].].G.S.6.[ b.N.M.C.D.D.C.C.A.Y.^.}.].{. X.X XOXR.x < ) G.).].Y.k k F F +.>.#.#.q.q.f.h.f.g.g.g.f.",
"L.L.L.K.K.L.S.B.B.b.B.n.n.c.G.{.|.A.C.c.e.c.b.M.D.Z.M.t.u.u.M.Y._._. X|. XOX.XZ.A e R P.).#XC.8 q 6 q 8 8 r g k N D -.o.@.>.1.1.",
"L.L.L.L.K.K.L.C.B.b.n.n.n.e.M.[.].A.S.c.6.c.c.N.G.P.C.r.r.w.r.A.)._.}.}.{. X].M.R R ` P.}.{.w.7 q 6 6 < < < 6 6 6 8 8 r g l k N ",
"F.L.L.K.V.L.L.S.n.b.b.n.B.v.v.~.{.G.D.b.e.c.e.N.L.~.F.t.| _ ) B.G.).^._.{.{.].w._ R ) G.).].M.^ / R R T a w 7 < 7 < < < 6 6 7 q ",
"F.G.K.G.L.L.G.F.S.B.B.V.b.B.v.B.].R.D.C.e.e.e.B.D.L.~.F.w._ _ y.C.P.)._.{./.~.,.R R [ P.]./.P.V.S.C.K.J.N.b.6.[ / R v d d e 9 < ",
"L.F.K.L.K.K.P.G.D.C.B.v.v.v.v.v.Y._.D.C.e.e.} b.F.P.F.D.y._ A ^ y.u.).{.`.^.C.) R ^ [ ~.`.}.~.P.P.P.K.K.F.K.K.J.S.B.b.c.} [ [ E ",
"L.L.K.L.P.P.L.G.L.S.V.v.B.v.v.e.D.{.G.D.e.e.} b.G.E.~.~.B._ a a [ C.G.{.|.^.C./ A ^ [ ).|.}.P.P.P.K.K.K.D.C.S.S.N.S.N.n.n.n.b.c.",
"L.F.L.L.L.L.F.G.C.F.D.B.b.v.v.} M.`.).G.b.[ } e.G.^.).).C./ A s w.E.).%X X).M.! R R w.). X^.G.P.P.G.G.F.C.S.B.n.V.S.V.n.B.b.b.b.",
"F.F.F.L.L.F.G.D.D.F.F.n.b.c.v.c.y.).{.^.L.} ] | D.E.).).C./ C s e.%X{.%X{.P.b./ Y _ C.^. X).A.P.G.G.F.D.F.C.D.F.S.S.C.C.n.b.b.n.",
"F.F.F.L.F.L.F.G.K.F.F.N.B.c.v.c.y.D.[.).y.] | | S.).).'.F.( C a ( {.%X%X].).M.! R ^ e.G.}.C.G.P.K.D.F.D.D.F.S.V.S.V.V.n.M.n.n.V.",
"F.F.F.F.F.K.K.K.D.G.J.S.n.v.c.c.| | y.| ] | ] ] V.[.).[.F.` C s R [.%X%X{.R.b.R R ^ ^ | y.C.P.P.K.D.D.F.F.C.S.S.V.V.V.n.n.n.B.n.",
"G.G.).Q.Q.Q.~.L.L.G.L.F.C.b.e.e.e.} { [ } [ ] ] D.).).}.L.) Y s ^ ).#X X{.P.w.R R ! / { C.K.K.F.G.V.D.D.D.S.S.S.S.S.n.n.V.V.n.n.",
").).Q.!.!.Q.!.!.).P.Q.P.K.C.v.c.e.} [ } ] [ ] ] K.).).].G.` Y R ^ G. X X{.~.e.T T / ` { N.K.P.P.L.L.D.F.D.S.S.S.V.S.S.N.C.V.n.n.",
"B.V.L.Q.P.!.'.'.'.'.Q.'.'.L.N.b.v.v.v.} { ] ' ] P.].].'.F./ Y E ^ L.%X X].).c.R E ! ` [ M.K.K.K.K.K.K.D.M.C.S.S.N.J.V.n.N.n.n.N.",
"1 1 w i s W / c.n.F.P.^.'.P.J.n.n.v.v.e.c.e.c.' N.).).).M.` R R ^ M.%X X_.G.e.Y ! ! ` { m.S.K.K.L.K.G.K.S.V.N.N.S.C.S.n.M.n.H.N.",
"x a p w 9 5 6 5 6 9 i C W / } e.e. .c.e.} c.e.{ y.~.).).C.) R R R r.%X{.[.D.e.Y E / ` ' b.J.J.J.D.S.L.D.N.N.N.N.N.N.n.N.n.n.n.n.",
"c Z Z v C v x e p 9 9 1 5 , 4 4 w i s Y W E / E | G.[.).F.e.E E ^ y.].{.}.F.} R ` ! ` { n.N.S.S.S.C.V.C.N.n.N.N.n.N.n.m.H.n.n.n.",
"G G Z Z V Z c v v j j x h a w 9 5 5 , : % 2 - 2 9 S.'.).D.e.R R ^ e.^.[.).C.] ^ / ` ` { b.J.K.K.K.V.F.B.n.n.N.N.N.N.H.H.H.n.n.c.",
"Z Z G S S G G G G G A V x v e a e 0 w 9 4 , : % % c.].^.M.{ i i C ) ).).}.S.[ ! / ! ' c.N.K.K.I.P.P.P.P.K.N.N.m.n.m.n.n.n.n.H.n.",
"J G G V c S c c M Z Z c A G A c b e t e t 4 2 , % ( [.).B.e.5 $ : s '.[.}.F.( R / E [ c.K.K.I.E.Q.P.K.I.P.K.J.J.V.S.J.H.V.V.n.n.",
"G G J G M G M G m Z c x x j x x n t p t t 9 : : % C [.).r.} 4 : , 1 S.].[.B.^ a s y d p v Y ' c.n.S.U.K.I.K.P.J.J.K.J.J.J.H.n.n.",
"S Z V S S b M G S G b c n h x l d t t t t 9 , 2 % w '.[.B.w.4 % , 5 B.{.[.C.W 4 , 5 3 2 2 , : 3 2 y d T ! ' e.c.n.n.V.V.U.N.H.N.",
"G G G G S G G m b S l l j c z p n t t t t 4 , 2 : , N.].S.} 4 2 , , ` [.}.B.A 9 w t d v x d n t p 9 3 > , < < w i s W ] { e.e.n.",
"G S S J G G G V V V k j n h e t t t t t t p 9 2 2 % ` R.M.e.3 2 , , a G.).S.C 6 9 a x x x c b T b b n d n e 9 9 9 < 4 5 , , 9 y ",
"l n c M Z G V m A V c A x x z p d t t t d t y y 9 , C P.M.e.4 , 4 < 9 C.~.M.C < 0 h r e G H ~ Q H J Z G G b b x x a p i i 9 4 2 ",
"V S k h p j c A c V V V b n z n d t t t y y t 4 4 3 i K.N.e.9 2 9 w 9 b.P.B.T 7 e x l c G G H H J G ~ J J H ~ J Z Z b n x n z d ",
"c c c h e 8 8 r V V c x z z t t d t t t y f 4 5 , % ! E.S.m.4 f 4 , a P.^.M.C 7 j c m m G M H M S S G H G V H J J ~ ~ G G J b b ",
"S A S G G G S A V k l z x z p z n p t t 9 4 3 2 % d P.Q.F.M.f 2 , 5 b.).~.C.C 5 z c M M H H H ~ M H H M H M H M G J S H H K H Q ",
"F H ~ H J G G V V c c x e e e 0 9 9 y 9 7 2 , : : c.[.P.~.L.3 : % R '.Q.G.G.A 7 c l M M M H H Q Q M o.Q H H H M S G G D V M M M ",
"F H D H G J P J D D J G S Z c z z x x x z p 9 < % p v.V.b.Y : > : 9 { M.t._ 1 w b M M M G M ~ H H H H H H H H H S S S S S G F D ",
"+.+.X.K L F F L F K F D G D V J J J J G ~ Z Z v p 7 1 1 , > < < < < 9 0 9 1 6 0 n ~ ~ G Q Q ~ K X.X.H H H Q -.M D D S S S H D F ",
"+.$.X.;.;.L L L L O.F K F S H L G H F H H J J J J J A V b b z 0 e z h j h V x b b b b S M G G J ~ H -.X.-.X.-.H K F D G S S D D ",
"$.X.O.X.O.L O.O.+.+.+.O.O.L X.L L F K F F S S S S S F F Q H G m m V Z G S G M c c c c c N c M M M M M H M H H H H Q H D H F D H ",
"@.+.o.+.+.+.+.O.O.+.O.+.+.;.+.X.;.X.L L H F J S P J F L Q X.-.X.X.X.;.;.+.Q H G V m m c c c N M m N m c l n m N S H H H Q K K K ",
"@.@.+.@.+.+.#.@.@.+.$.$.+.+.+.X.;.X.L L Q +.X.L L +.;.O.X.X.X.F X.;.;.;.:.:.:.:.;.-.Q L J G J D M m M M M N m m M m N m N S S G "
};
